<svg xmlns="http://www.w3.org/2000/svg" xmlns:xlink="http://www.w3.org/1999/xlink" id="Capa_1" x="0px" y="0px" viewBox="0 0 400 400" style="enable-background:new 0 0 400 400;" xml:space="preserve"><g>	<path d="M397.6,195.9c-0.9-0.5-20.9-12.4-20.9-43.7c0-34.5-4.7-80.2-44-84.9c-4.7-39.3-50.4-44-84.9-44c-31.2,0-43.2-20-43.7-20.9  C203.2,0.9,201.7,0,200,0c0,0,0,0,0,0c-1.7,0-3.2,0.9-4.1,2.4c-0.5,0.9-12.4,20.9-43.7,20.9c-34.5,0-80.2,4.7-84.9,44  c-39.3,4.7-44,50.4-44,84.9c0,31.3-20.1,43.2-20.9,43.7C0.9,196.7,0,198.3,0,200c0,1.7,0.9,3.2,2.4,4.1  c0.9,0.5,20.9,12.4,20.9,43.7c0,34.5,4.7,80.2,44,84.9c4.7,39.3,50.4,44,84.9,44c31.3,0,43.2,20.1,43.7,20.9  c0.8,1.5,2.4,2.4,4.1,2.4c0,0,0,0,0,0c1.7,0,3.2-0.9,4.1-2.4c0.5-0.9,12.4-20.9,43.7-20.9c34.5,0,80.2-4.7,84.9-44  c39.3-4.7,44-50.4,44-84.9c0-31.3,20.1-43.2,20.9-43.7c1.5-0.8,2.4-2.4,2.4-4.1C400,198.3,399.1,196.8,397.6,195.9z M367.3,247.8  c0,50.6-12.4,74.7-39.2,75.9c-2.4,0.1-4.4,2.1-4.5,4.5c-1.2,26.7-25.3,39.2-75.9,39.2c-26.4,0-41.2,12.6-47.8,20.1  c-6.6-7.6-21.4-20.1-47.8-20.1c-50.6,0-74.7-12.4-75.9-39.2c-0.1-2.4-2.1-4.4-4.5-4.5c-26.7-1.2-39.2-25.3-39.2-75.9  c0-26.4-12.6-41.2-20.1-47.8c7.6-6.6,20.1-21.4,20.1-47.8c0-50.6,12.4-74.7,39.2-75.9c2.4-0.1,4.4-2.1,4.5-4.5  c1.2-26.7,25.3-39.2,75.9-39.2c26.4,0,41.2-12.6,47.8-20.1c6.6,7.6,21.4,20.1,47.8,20.1c50.6,0,74.7,12.4,75.9,39.2  c0.1,2.4,2.1,4.4,4.5,4.5c26.7,1.2,39.2,25.3,39.2,75.9c0,26.4,12.6,41.2,20.1,47.8C379.9,206.5,367.3,221.4,367.3,247.8z"></path>	<path d="M358.8,152.2c0-58.5-16.6-66.8-31.1-67.4c-6.9-0.3-12.3-5.7-12.6-12.6c-0.6-14.5-8.9-31.1-67.4-31.1  c-22.9,0-38.2-8.8-47-16.1c-0.4-0.4-1.1-0.4-1.5,0c-8.8,7.4-24.1,16.1-47,16.1c-58.5,0-66.8,16.6-67.4,31  c-0.3,6.9-5.7,12.3-12.6,12.6c-14.5,0.6-31.1,8.9-31.1,67.4c0,22.9-8.8,38.2-16.1,47c-0.4,0.4-0.4,1.1,0,1.5  c7.4,8.8,16.1,24.1,16.1,47c0,58.5,16.6,66.8,31.1,67.4c6.9,0.3,12.3,5.7,12.6,12.6c0.6,14.5,8.9,31.1,67.4,31.1  c22.9,0,38.2,8.8,47,16.1c0.2,0.2,0.5,0.3,0.8,0.3c0.3,0,0.5-0.1,0.8-0.3c8.8-7.4,24.1-16.1,47-16.1c58.5,0,66.8-16.6,67.4-31  c0.3-6.9,5.7-12.3,12.6-12.6c14.5-0.6,31.1-8.9,31.1-67.4c0-22.9,8.8-38.2,16.1-47c0.4-0.4,0.4-1.1,0-1.5  C367.6,190.4,358.8,175.1,358.8,152.2z"></path></g></svg>